<svg width="24" height="22" viewBox="0 0 24 22" fill="none" xmlns="http://www.w3.org/2000/svg" ><path d="M23.9937 11.1467C23.9937 11.8968 23.3687 12.4844 22.6603 12.4844H21.3268L21.356 19.1599C21.3643 20.6392 20.1684 21.8393 18.6891 21.8393H5.33795C3.867 21.8393 2.67106 20.6434 2.67106 19.1724V12.4844H1.33345C0.583383 12.4844 0 11.901 0 11.1467C0 10.7717 0.125011 10.4383 0.416702 10.1467L11.1009 0.833362C11.3926 0.54167 11.726 0.5 12.0177 0.5C12.3094 0.5 12.6427 0.58334 12.8928 0.791691L23.5353 10.1467C23.8687 10.4383 24.0354 10.7717 23.9937 11.1467Z" fill="white" />
              </svg>