<svg width="24" height="24" viewBox="0 0 24 24" fill="none" xmlns="http://www.w3.org/2000/svg">
<path d="M19.6034 9.80169C19.6034 11.9647 18.9012 13.9627 17.7184 15.5837L22.9303 20.8003L24 21.8653L21.8653 24L20.8003 22.935L15.5837 17.7184C13.9627 18.9059 11.9647 19.6034 9.80169 19.6034C4.3872 19.6034 0 15.2162 0 9.80169C0 4.3872 4.3872 0 9.80169 0C15.2162 0 19.6034 4.3872 19.6034 9.80169ZM9.80169 16.5875C13.548 16.5875 16.5875 13.548 16.5875 9.80169C16.5875 6.05537 13.548 3.0159 9.80169 3.0159C6.05537 3.0159 3.0159 6.05537 3.0159 9.80169C3.0159 13.548 6.05537 16.5875 9.80169 16.5875Z"
fill="#A3A3A3"/></svg>